# xmcd
#
# Track frame offsets:
#	150
#	11309
#	23953
#	34013
#	46286
#	59853
#	72747
#	85665
#	97778
#	109424
#	121189
#	135079
#	149198
#	162119
#	173817
#	187508
#	201142
#	213430
#	226447
#	237502
#	250270
#	262714
#
# Disc length: 3678 seconds
#
# Revision: 1
# Processed by: cddbd v1.5.2PL0 Copyright (c) Steve Scherf et al.
# Submitted via: audiograbber 1.83.01
#
DISCID=2b0e5c16
DTITLE=Sunnyland Slim - 1947-1961 [CD 2)
DYEAR=2017
DGENRE=Blues
TTITLE0=Hard times
TTITLE1=School days
TTITLE2=Blue baby
TTITLE3=I want my baby
TTITLE4=Mud kicking woman
TTITLE5=Everytime I get to drinking
TTITLE6=Bad times
TTITLE7=Hard times
TTITLE8=Brown skin woman
TTITLE9=I'm just a lonesome man
TTITLE10=Back to Korea Blues
TTITLE11=It's all over now
TTITLE12=Down home child
TTITLE13=Sunnyland special
TTITLE14=Leaving your town
TTITLE15=Mary Lee
TTITLE16=I done you wrong
TTITLE17=Orphan Boy Blues
TTITLE18=When I was young
TTITLE19=(Low down) Sunnyland Train
TTITLE20=Ain't nothing but a child
TTITLE21=Brown skin woman
EXTD=
EXTT0=
EXTT1=
EXTT2=
EXTT3=
EXTT4=
EXTT5=
EXTT6=
EXTT7=
EXTT8=
EXTT9=
EXTT10=
EXTT11=
EXTT12=
EXTT13=
EXTT14=
EXTT15=
EXTT16=
EXTT17=
EXTT18=
EXTT19=
EXTT20=
EXTT21=
PLAYORDER=
